# xmcd
#
# Track frame offsets: 
#        150
#        14821
#        37214
#        48584
#        70336
#        99402
#        127744
#        157971
#        169375
#        180934
#        194439
#        204268
#        215100
#        233272
#        249790
#        275628
#
# Disc length: 3936 seconds
#
# Revision: 0
# Processed by: cddbd v1.5.2PL0 Copyright (c) Steve Scherf et al.
# Submitted via: ExactAudioCopy v1.3
#
DISCID=de0f5e10
DTITLE=Rocky Zharp - Live At B.B. Kings Hollywood
DYEAR=2003
DGENRE=Harmonica Blues, Electric Blues
TTITLE0=In the Dark (With the Blues Crackers)
TTITLE1=Old Blues Cracker (With the Blues Crackers)
TTITLE2=Rollin' and Tumblin' (With the Blues Crackers)
TTITLE3=Granny's Boogie (With the Blues Crackers)
TTITLE4=Louise (With the Blues Crackers)
TTITLE5=Help Me (With the Blues Crackers)
TTITLE6=King Bee Sittin' On Top Of The World
TTITLE7=Writing On The Wall
TTITLE8=Big Boss Man
TTITLE9=Built For Comfort
TTITLE10=3 Nights In A Row
TTITLE11=Mind Your Own Business
TTITLE12=I's Gonna Leave Her Anyway (Bonus Studio Track)
TTITLE13=I Got Love (Bonus Studio Track)
TTITLE14=Lizard Blues (Bonus Studio Track)
TTITLE15=You Better Run (Bonus Studio Track)
EXTD=
EXTT0=
EXTT1=
EXTT2=
EXTT3=
EXTT4=
EXTT5=
EXTT6=
EXTT7=
EXTT8=
EXTT9=
EXTT10=
EXTT11=
EXTT12=
EXTT13=
EXTT14=
EXTT15=
PLAYORDER=
